<?xml version="1.0" standalone="no"?>
<!DOCTYPE svg PUBLIC "-//W3C//DTD SVG 20010904//EN"
 "http://www.w3.org/TR/2001/REC-SVG-20010904/DTD/svg10.dtd">
<svg version="1.0" xmlns="http://www.w3.org/2000/svg"
 width="400.000000pt" height="400.000000pt" viewBox="0 0 400.000000 400.000000"
 preserveAspectRatio="xMidYMid meet">
<metadata>
Created by potrace 1.14, written by Peter Selinger 2001-2017
</metadata>
<g transform="translate(0.000000,400.000000) scale(0.100000,-0.100000)"
fill="#000000" stroke="none">
<path d="M1785 3784 c-601 -80 -1094 -419 -1374 -945 -72 -136 -146 -335 -166
-448 -2 -14 -9 -51 -15 -81 -25 -125 -32 -353 -17 -509 31 -317 186 -684 397
-941 102 -123 315 -316 399 -360 14 -7 30 -17 35 -22 65 -55 402 -200 516
-222 14 -2 59 -12 99 -21 102 -21 194 -29 341 -29 148 0 317 17 388 38 10 3
28 7 42 10 67 12 258 83 365 136 99 49 276 156 295 179 3 3 32 28 65 55 307
253 547 661 610 1036 3 19 8 42 10 50 21 80 26 359 9 507 -59 504 -345 975
-767 1265 -161 111 -377 210 -562 257 -84 21 -101 24 -205 42 -93 16 -359 17
-465 3z"/>
</g>
</svg>
